<svg width="185" height="67" viewBox="0 0 185 67" fill="none" xmlns="http://www.w3.org/2000/svg">
<path fill-rule="evenodd" clip-rule="evenodd" d="M28.713 29.5214L20.4473 32.8056L28.713 37.0719L36.9754 32.8056L28.713 29.5214Z" fill="#010101" fill-opacity="0.6"/>
<path fill-rule="evenodd" clip-rule="evenodd" d="M20.4473 32.8057L28.713 37.072V20.8242L20.4473 32.8057Z" fill="#403EAB"/>
<path fill-rule="evenodd" clip-rule="evenodd" d="M28.7131 20.8242V37.0719L36.9756 32.8056L28.7131 20.8242Z" fill="#7473D0"/>
<path fill-rule="evenodd" clip-rule="evenodd" d="M20.4473 34.1738L28.713 44.347V38.4401L20.4473 34.1738Z" fill="#403EAB"/>
<path fill-rule="evenodd" clip-rule="evenodd" d="M28.7131 38.4401V44.347L36.9821 34.1738L28.7131 38.4401Z" fill="#7473D0"/>
<path d="M133.718 19.5831V27.38H139.637V25.9386H135.433V24.0276H139.211V22.6953H135.433V21.0246H139.55V19.5831H133.718ZM142.525 21.0246V27.38H144.239V21.0246H146.576V19.5831H140.188V21.0246H142.525ZM147.475 19.5831V27.38H149.19V24.0167H152.345V27.38H154.06V19.5831H152.345V22.5752H149.19V19.5831H147.475Z" fill="#7473D0"/>
<path d="M72.1838 20.6547H73.4987C73.4884 20.3247 73.5193 19.9998 73.5915 19.6801C73.674 19.3501 73.803 19.0562 73.9783 18.7983C74.1536 18.5405 74.3754 18.3342 74.6435 18.1795C74.922 18.0145 75.252 17.932 75.6336 17.932C75.9224 17.932 76.1957 17.9784 76.4535 18.0712C76.7113 18.164 76.9331 18.2981 77.1187 18.4734C77.3147 18.6488 77.4694 18.8602 77.5828 19.1077C77.6963 19.3449 77.753 19.6131 77.753 19.9122C77.753 20.2938 77.6911 20.6289 77.5674 20.9177C77.4539 21.2065 77.2786 21.4746 77.0414 21.7222C76.8145 21.9697 76.5257 22.2172 76.175 22.4647C75.8244 22.7019 75.417 22.9649 74.9529 23.2537C74.5713 23.4806 74.2052 23.723 73.8545 23.9808C73.5039 24.2386 73.1893 24.5377 72.9109 24.8781C72.6324 25.2184 72.4003 25.6206 72.2147 26.0847C72.0394 26.5385 71.9259 27.0903 71.8744 27.74H79.037V26.5798H73.4059C73.4678 26.2394 73.5967 25.9403 73.7927 25.6825C73.9989 25.4144 74.2413 25.1668 74.5197 24.9399C74.8085 24.713 75.1231 24.5016 75.4634 24.3057C75.8038 24.0994 76.1441 23.8931 76.4844 23.6869C76.8248 23.4703 77.1548 23.2434 77.4745 23.0062C77.7942 22.769 78.0779 22.506 78.3254 22.2172C78.5729 21.9181 78.7689 21.5829 78.9132 21.2116C79.0679 20.8404 79.1453 20.4124 79.1453 19.9276C79.1453 19.412 79.0525 18.9582 78.8668 18.5663C78.6915 18.1744 78.4491 17.8495 78.1397 17.5917C77.8303 17.3235 77.4642 17.1224 77.0414 16.9883C76.6288 16.8439 76.1854 16.7717 75.7109 16.7717C75.1334 16.7717 74.6177 16.8697 74.1639 17.0657C73.7101 17.2616 73.3286 17.5349 73.0191 17.8856C72.7201 18.2259 72.4983 18.6333 72.3539 19.1077C72.2095 19.5821 72.1528 20.0978 72.1838 20.6547ZM83.4717 21.4746V22.5885C83.7192 22.5575 83.9822 22.5421 84.2607 22.5421C84.5907 22.5421 84.895 22.5885 85.1734 22.6813C85.4622 22.7638 85.7097 22.8979 85.916 23.0835C86.1223 23.2589 86.2873 23.4806 86.411 23.7487C86.5348 24.0066 86.5967 24.3057 86.5967 24.646C86.5967 24.976 86.5296 25.2751 86.3956 25.5433C86.2718 25.8011 86.1016 26.0228 85.8851 26.2085C85.6685 26.3838 85.4158 26.523 85.127 26.6262C84.8382 26.719 84.534 26.7654 84.2143 26.7654C83.4614 26.7654 82.889 26.5437 82.4971 26.1002C82.1052 25.6464 81.8989 25.0637 81.8783 24.3521H80.5633C80.553 24.9193 80.6304 25.4247 80.7954 25.8681C80.9707 26.3116 81.2182 26.6881 81.538 26.9975C81.8577 27.2965 82.2444 27.5234 82.6982 27.6781C83.152 27.8328 83.6574 27.9102 84.2143 27.9102C84.73 27.9102 85.2147 27.8432 85.6685 27.7091C86.1326 27.5647 86.5348 27.3533 86.8751 27.0748C87.2155 26.7963 87.4836 26.4508 87.6796 26.0383C87.8858 25.6155 87.989 25.1307 87.989 24.5841C87.989 23.9241 87.824 23.3517 87.4939 22.8669C87.1742 22.3822 86.6792 22.0677 86.0088 21.9233V21.8923C86.442 21.6964 86.8029 21.4076 87.0917 21.026C87.3805 20.6444 87.5249 20.2061 87.5249 19.7111C87.5249 19.2057 87.4372 18.7674 87.2619 18.3961C87.0969 18.0248 86.8648 17.7206 86.5657 17.4834C86.2666 17.2462 85.9108 17.0708 85.4983 16.9574C85.0961 16.8336 84.6578 16.7717 84.1833 16.7717C83.6367 16.7717 83.152 16.8594 82.7292 17.0347C82.3166 17.2101 81.9711 17.4524 81.6927 17.7618C81.4142 18.0712 81.1976 18.4425 81.0429 18.8757C80.8985 19.3088 80.816 19.7884 80.7954 20.3144H82.1104C82.1104 19.9947 82.1516 19.6904 82.2341 19.4017C82.3166 19.1129 82.4404 18.8602 82.6054 18.6436C82.7807 18.427 82.9973 18.2569 83.2551 18.1331C83.5233 17.999 83.8327 17.932 84.1833 17.932C84.7403 17.932 85.2044 18.0815 85.5757 18.3806C85.9469 18.6694 86.1326 19.1077 86.1326 19.6956C86.1326 19.9844 86.0759 20.2422 85.9624 20.4691C85.849 20.696 85.6943 20.8868 85.4983 21.0415C85.3127 21.1859 85.0909 21.2993 84.8331 21.3818C84.5856 21.454 84.3226 21.4901 84.0441 21.4901H83.7657C83.7141 21.4901 83.6625 21.4901 83.611 21.4901C83.5697 21.4901 83.5233 21.485 83.4717 21.4746ZM89.9794 26.0228V27.74H91.6966V26.0228H89.9794ZM93.6817 20.6547H94.9967C94.9864 20.3247 95.0173 19.9998 95.0895 19.6801C95.172 19.3501 95.3009 19.0562 95.4763 18.7983C95.6516 18.5405 95.8733 18.3342 96.1415 18.1795C96.4199 18.0145 96.75 17.932 97.1316 17.932C97.4203 17.932 97.6936 17.9784 97.9515 18.0712C98.2093 18.164 98.431 18.2981 98.6167 18.4734C98.8126 18.6488 98.9673 18.8602 99.0808 19.1077C99.1942 19.3449 99.251 19.6131 99.251 19.9122C99.251 20.2938 99.1891 20.6289 99.0653 20.9177C98.9519 21.2065 98.7765 21.4746 98.5393 21.7222C98.3124 21.9697 98.0237 22.2172 97.673 22.4647C97.3224 22.7019 96.915 22.9649 96.4509 23.2537C96.0693 23.4806 95.7032 23.723 95.3525 23.9808C95.0018 24.2386 94.6873 24.5377 94.4088 24.8781C94.1304 25.2184 93.8983 25.6206 93.7127 26.0847C93.5373 26.5385 93.4239 27.0903 93.3723 27.74H100.535V26.5798H94.9039C94.9657 26.2394 95.0947 25.9403 95.2906 25.6825C95.4969 25.4144 95.7392 25.1668 96.0177 24.9399C96.3065 24.713 96.621 24.5016 96.9614 24.3057C97.3017 24.0994 97.6421 23.8931 97.9824 23.6869C98.3228 23.4703 98.6528 23.2434 98.9725 23.0062C99.2922 22.769 99.5758 22.506 99.8233 22.2172C100.071 21.9181 100.267 21.5829 100.411 21.2116C100.566 20.8404 100.643 20.4124 100.643 19.9276C100.643 19.412 100.55 18.9582 100.365 18.5663C100.189 18.1744 99.9471 17.8495 99.6377 17.5917C99.3283 17.3235 98.9622 17.1224 98.5393 16.9883C98.1268 16.8439 97.6833 16.7717 97.2089 16.7717C96.6314 16.7717 96.1157 16.8697 95.6619 17.0657C95.2081 17.2616 94.8265 17.5349 94.5171 17.8856C94.218 18.2259 93.9963 18.6333 93.8519 19.1077C93.7075 19.5821 93.6508 20.0978 93.6817 20.6547ZM104.97 21.4746V22.5885C105.217 22.5575 105.48 22.5421 105.759 22.5421C106.089 22.5421 106.393 22.5885 106.671 22.6813C106.96 22.7638 107.208 22.8979 107.414 23.0835C107.62 23.2589 107.785 23.4806 107.909 23.7487C108.033 24.0066 108.095 24.3057 108.095 24.646C108.095 24.976 108.028 25.2751 107.894 25.5433C107.77 25.8011 107.6 26.0228 107.383 26.2085C107.166 26.3838 106.914 26.523 106.625 26.6262C106.336 26.719 106.032 26.7654 105.712 26.7654C104.959 26.7654 104.387 26.5437 103.995 26.1002C103.603 25.6464 103.397 25.0637 103.376 24.3521H102.061C102.051 24.9193 102.128 25.4247 102.293 25.8681C102.469 26.3116 102.716 26.6881 103.036 26.9975C103.356 27.2965 103.742 27.5234 104.196 27.6781C104.65 27.8328 105.155 27.9102 105.712 27.9102C106.228 27.9102 106.713 27.8432 107.166 27.7091C107.631 27.5647 108.033 27.3533 108.373 27.0748C108.713 26.7963 108.982 26.4508 109.178 26.0383C109.384 25.6155 109.487 25.1307 109.487 24.5841C109.487 23.9241 109.322 23.3517 108.992 22.8669C108.672 22.3822 108.177 22.0677 107.507 21.9233V21.8923C107.94 21.6964 108.301 21.4076 108.59 21.026C108.878 20.6444 109.023 20.2061 109.023 19.7111C109.023 19.2057 108.935 18.7674 108.76 18.3961C108.595 18.0248 108.363 17.7206 108.064 17.4834C107.765 17.2462 107.409 17.0708 106.996 16.9574C106.594 16.8336 106.156 16.7717 105.681 16.7717C105.135 16.7717 104.65 16.8594 104.227 17.0347C103.815 17.2101 103.469 17.4524 103.191 17.7618C102.912 18.0712 102.696 18.4425 102.541 18.8757C102.396 19.3088 102.314 19.7884 102.293 20.3144H103.608C103.608 19.9947 103.65 19.6904 103.732 19.4017C103.815 19.1129 103.938 18.8602 104.103 18.6436C104.279 18.427 104.495 18.2569 104.753 18.1331C105.021 17.999 105.331 17.932 105.681 17.932C106.238 17.932 106.702 18.0815 107.074 18.3806C107.445 18.6694 107.631 19.1077 107.631 19.6956C107.631 19.9844 107.574 20.2422 107.46 20.4691C107.347 20.696 107.192 20.8868 106.996 21.0415C106.811 21.1859 106.589 21.2993 106.331 21.3818C106.084 21.454 105.821 21.4901 105.542 21.4901H105.264C105.212 21.4901 105.16 21.4901 105.109 21.4901C105.068 21.4901 105.021 21.485 104.97 21.4746ZM115.438 24.0117H111.756L115.407 18.6436H115.438V24.0117ZM116.675 24.0117V16.7717H115.623L110.627 23.9034V25.172H115.438V27.74H116.675V25.172H118.16V24.0117H116.675Z" fill="white"/>
<g filter="url(#filter0_f_18_3438)">
<ellipse cx="7.68452" cy="4.15898" rx="7.68452" ry="4.15898" transform="matrix(0.984055 -0.177867 0.204616 0.978842 81.1309 40.3223)" fill="url(#paint0_linear_18_3438)"/>
</g>
<path d="M62.2893 51.1537C62.2893 51.1537 65.008 46.4675 68.1314 48.081C71.2549 49.6946 71.6597 51.1537 74.4361 50.1855C77.2125 49.2174 77.3863 41.035 79.8156 42.6486C82.245 44.2622 88.2414 47.4893 93.4472 42.6486" stroke="url(#paint1_linear_18_3438)" stroke-width="1.82001" stroke-linecap="round" stroke-linejoin="round"/>
<path d="M105.511 49.265L104.626 50.0881C104.3 50.3912 103.772 50.3912 103.446 50.0881C103.12 49.785 103.12 49.2937 103.446 48.9906L104.331 48.1675L102 46H107.842V51.4324L105.511 49.265Z" fill="#309AFF"/>
<path d="M118.212 48.1672V45.975H117.531V48.1672H115.349V48.8478H117.531V51.04H118.212V48.8478H120.394V48.1672H118.212ZM123.053 46.986V47.7067C123.213 47.6867 123.383 47.6767 123.563 47.6767C123.777 47.6767 123.974 47.7067 124.154 47.7668C124.341 47.8201 124.501 47.9069 124.634 48.027C124.768 48.1405 124.875 48.2839 124.955 48.4574C125.035 48.6243 125.075 48.8178 125.075 49.038C125.075 49.2516 125.031 49.4451 124.945 49.6186C124.865 49.7854 124.754 49.9289 124.614 50.049C124.474 50.1625 124.311 50.2526 124.124 50.3193C123.937 50.3794 123.74 50.4094 123.533 50.4094C123.046 50.4094 122.676 50.2659 122.422 49.979C122.168 49.6853 122.035 49.3083 122.022 48.8478H121.171C121.164 49.2149 121.214 49.5419 121.321 49.8288C121.434 50.1158 121.595 50.3594 121.801 50.5596C122.008 50.7531 122.259 50.8999 122.552 51C122.846 51.1001 123.173 51.1501 123.533 51.1501C123.867 51.1501 124.181 51.1068 124.474 51.02C124.774 50.9266 125.035 50.7898 125.255 50.6096C125.475 50.4294 125.649 50.2059 125.775 49.9389C125.909 49.6653 125.976 49.3517 125.976 48.998C125.976 48.5709 125.869 48.2005 125.655 47.8869C125.448 47.5732 125.128 47.3697 124.694 47.2763V47.2562C124.975 47.1294 125.208 46.9426 125.395 46.6957C125.582 46.4488 125.675 46.1651 125.675 45.8448C125.675 45.5178 125.619 45.2342 125.505 44.994C125.398 44.7537 125.248 44.5569 125.055 44.4034C124.861 44.2499 124.631 44.1364 124.364 44.063C124.104 43.983 123.82 43.9429 123.513 43.9429C123.159 43.9429 122.846 43.9996 122.572 44.1131C122.305 44.2265 122.082 44.3834 121.902 44.5836C121.721 44.7838 121.581 45.024 121.481 45.3043C121.388 45.5846 121.334 45.8949 121.321 46.2352H122.172C122.172 46.0283 122.199 45.8315 122.252 45.6446C122.305 45.4578 122.385 45.2943 122.492 45.1541C122.606 45.014 122.746 44.9039 122.913 44.8238C123.086 44.737 123.286 44.6937 123.513 44.6937C123.874 44.6937 124.174 44.7904 124.414 44.984C124.654 45.1708 124.774 45.4544 124.774 45.8348C124.774 46.0217 124.738 46.1885 124.664 46.3353C124.591 46.4821 124.491 46.6056 124.364 46.7057C124.244 46.7991 124.1 46.8725 123.934 46.9259C123.773 46.9726 123.603 46.996 123.423 46.996H123.243C123.21 46.996 123.176 46.996 123.143 46.996C123.116 46.996 123.086 46.9926 123.053 46.986ZM127.774 49.3283H126.923C126.977 49.9423 127.2 50.3994 127.594 50.6997C127.988 51 128.481 51.1501 129.075 51.1501C129.936 51.1501 130.56 50.8232 130.947 50.1692C131.341 49.5085 131.538 48.5642 131.538 47.3363C131.538 46.6623 131.471 46.1084 131.338 45.6747C131.211 45.2342 131.037 44.8872 130.817 44.6336C130.597 44.38 130.34 44.2032 130.046 44.1031C129.753 43.9963 129.439 43.9429 129.105 43.9429C128.765 43.9429 128.451 43.9996 128.164 44.1131C127.878 44.2265 127.631 44.3867 127.424 44.5936C127.217 44.7938 127.057 45.0373 126.943 45.3243C126.83 45.6046 126.773 45.9149 126.773 46.2552C126.773 46.6023 126.82 46.9226 126.913 47.2162C127.013 47.5098 127.157 47.7601 127.344 47.967C127.537 48.1738 127.774 48.3373 128.054 48.4574C128.335 48.5709 128.655 48.6276 129.015 48.6276C129.362 48.6276 129.683 48.5409 129.976 48.3674C130.27 48.1872 130.497 47.9469 130.657 47.6466L130.677 47.6667C130.65 48.5943 130.507 49.2849 130.247 49.7387C129.986 50.1858 129.596 50.4094 129.075 50.4094C128.735 50.4094 128.441 50.316 128.195 50.1291C127.948 49.9423 127.807 49.6753 127.774 49.3283ZM130.527 46.3153C130.527 46.5222 130.493 46.7224 130.427 46.9159C130.36 47.1028 130.263 47.2696 130.136 47.4164C130.01 47.5565 129.856 47.67 129.676 47.7567C129.496 47.8368 129.296 47.8769 129.075 47.8769C128.869 47.8769 128.678 47.8368 128.505 47.7567C128.338 47.67 128.191 47.5565 128.064 47.4164C127.944 47.2763 127.848 47.1161 127.774 46.9359C127.707 46.7557 127.674 46.5689 127.674 46.3754C127.674 46.1551 127.697 45.9449 127.744 45.7447C127.797 45.5445 127.878 45.3677 127.984 45.2142C128.098 45.054 128.241 44.9272 128.415 44.8338C128.595 44.7404 128.812 44.6937 129.065 44.6937C129.306 44.6937 129.516 44.737 129.696 44.8238C129.876 44.9106 130.026 45.0307 130.146 45.1842C130.273 45.331 130.367 45.5011 130.427 45.6947C130.493 45.8882 130.527 46.0951 130.527 46.3153ZM132.826 49.9289V51.04H133.937V49.9289H132.826ZM138.925 45.7547H139.776C139.723 45.1675 139.522 44.7204 139.175 44.4134C138.828 44.0997 138.361 43.9429 137.774 43.9429C137.267 43.9429 136.846 44.0497 136.513 44.2632C136.179 44.4768 135.912 44.7604 135.712 45.1141C135.512 45.4678 135.368 45.8749 135.281 46.3353C135.201 46.7891 135.161 47.2596 135.161 47.7467C135.161 48.1204 135.188 48.5075 135.241 48.9079C135.301 49.3083 135.418 49.6753 135.592 50.009C135.765 50.3427 136.012 50.6163 136.333 50.8298C136.653 51.0434 137.077 51.1501 137.604 51.1501C138.051 51.1501 138.425 51.0767 138.725 50.9299C139.032 50.7764 139.275 50.5863 139.456 50.3594C139.643 50.1258 139.776 49.8689 139.856 49.5886C139.936 49.3083 139.976 49.038 139.976 48.7778C139.976 48.4508 139.926 48.1471 139.826 47.8669C139.726 47.5866 139.582 47.343 139.396 47.1361C139.215 46.9292 138.989 46.7691 138.715 46.6556C138.448 46.5355 138.144 46.4755 137.804 46.4755C137.417 46.4755 137.073 46.5489 136.773 46.6957C136.479 46.8425 136.232 47.0794 136.032 47.4064L136.012 47.3864C136.019 47.1128 136.046 46.8191 136.092 46.5055C136.139 46.1918 136.222 45.9015 136.343 45.6346C136.469 45.361 136.643 45.1374 136.863 44.9639C137.083 44.7838 137.374 44.6937 137.734 44.6937C138.074 44.6937 138.348 44.7904 138.555 44.984C138.762 45.1775 138.885 45.4344 138.925 45.7547ZM137.644 47.2262C137.884 47.2262 138.094 47.2696 138.274 47.3563C138.455 47.4431 138.605 47.5599 138.725 47.7067C138.845 47.8468 138.932 48.017 138.985 48.2172C139.045 48.4107 139.075 48.6176 139.075 48.8378C139.075 49.0447 139.042 49.2449 138.975 49.4384C138.915 49.6253 138.825 49.7921 138.705 49.9389C138.585 50.0857 138.435 50.2025 138.254 50.2893C138.081 50.3694 137.877 50.4094 137.644 50.4094C137.41 50.4094 137.2 50.3694 137.013 50.2893C136.833 50.2025 136.68 50.0891 136.553 49.9489C136.433 49.8088 136.339 49.642 136.272 49.4484C136.206 49.2549 136.172 49.048 136.172 48.8278C136.172 48.6076 136.202 48.4007 136.262 48.2072C136.329 48.007 136.426 47.8368 136.553 47.6967C136.68 47.5499 136.833 47.4364 137.013 47.3563C137.193 47.2696 137.404 47.2262 137.644 47.2262ZM141.685 49.3283H140.834C140.887 49.9423 141.111 50.3994 141.504 50.6997C141.898 51 142.392 51.1501 142.986 51.1501C143.847 51.1501 144.471 50.8232 144.858 50.1692C145.251 49.5085 145.448 48.5642 145.448 47.3363C145.448 46.6623 145.382 46.1084 145.248 45.6747C145.121 45.2342 144.948 44.8872 144.728 44.6336C144.507 44.38 144.25 44.2032 143.957 44.1031C143.663 43.9963 143.35 43.9429 143.016 43.9429C142.676 43.9429 142.362 43.9996 142.075 44.1131C141.788 44.2265 141.541 44.3867 141.334 44.5936C141.127 44.7938 140.967 45.0373 140.854 45.3243C140.74 45.6046 140.684 45.9149 140.684 46.2552C140.684 46.6023 140.73 46.9226 140.824 47.2162C140.924 47.5098 141.067 47.7601 141.254 47.967C141.448 48.1738 141.685 48.3373 141.965 48.4574C142.245 48.5709 142.565 48.6276 142.926 48.6276C143.273 48.6276 143.593 48.5409 143.887 48.3674C144.18 48.1872 144.407 47.9469 144.567 47.6466L144.587 47.6667C144.561 48.5943 144.417 49.2849 144.157 49.7387C143.897 50.1858 143.506 50.4094 142.986 50.4094C142.646 50.4094 142.352 50.316 142.105 50.1291C141.858 49.9423 141.718 49.6753 141.685 49.3283ZM144.437 46.3153C144.437 46.5222 144.404 46.7224 144.337 46.9159C144.27 47.1028 144.174 47.2696 144.047 47.4164C143.92 47.5565 143.767 47.67 143.586 47.7567C143.406 47.8368 143.206 47.8769 142.986 47.8769C142.779 47.8769 142.589 47.8368 142.415 47.7567C142.248 47.67 142.102 47.5565 141.975 47.4164C141.855 47.2763 141.758 47.1161 141.685 46.9359C141.618 46.7557 141.584 46.5689 141.584 46.3754C141.584 46.1551 141.608 45.9449 141.655 45.7447C141.708 45.5445 141.788 45.3677 141.895 45.2142C142.008 45.054 142.152 44.9272 142.325 44.8338C142.505 44.7404 142.722 44.6937 142.976 44.6937C143.216 44.6937 143.426 44.737 143.606 44.8238C143.787 44.9106 143.937 45.0307 144.057 45.1842C144.184 45.331 144.277 45.5011 144.337 45.6947C144.404 45.8882 144.437 46.0951 144.437 46.3153ZM147.577 45.9549C147.577 45.8014 147.587 45.6413 147.607 45.4745C147.627 45.3009 147.667 45.1441 147.727 45.004C147.794 44.8572 147.884 44.737 147.998 44.6436C148.111 44.5435 148.261 44.4935 148.448 44.4935C148.641 44.4935 148.792 44.5435 148.898 44.6436C149.012 44.737 149.099 44.8572 149.159 45.004C149.219 45.1441 149.255 45.3009 149.269 45.4745C149.289 45.6413 149.299 45.7981 149.299 45.9449C149.299 46.0984 149.289 46.2619 149.269 46.4354C149.249 46.6089 149.205 46.7691 149.139 46.9159C149.079 47.056 148.992 47.1728 148.878 47.2663C148.765 47.3597 148.611 47.4064 148.418 47.4064C148.231 47.4064 148.081 47.3597 147.967 47.2663C147.861 47.1662 147.777 47.046 147.717 46.9059C147.657 46.7591 147.617 46.6023 147.597 46.4354C147.584 46.2619 147.577 46.1017 147.577 45.9549ZM146.826 45.975C146.826 46.2486 146.853 46.5055 146.906 46.7457C146.966 46.986 147.06 47.1962 147.187 47.3764C147.313 47.5565 147.48 47.7 147.687 47.8068C147.894 47.9069 148.148 47.9569 148.448 47.9569C148.742 47.9569 148.989 47.9002 149.189 47.7868C149.389 47.6733 149.552 47.5265 149.679 47.3463C149.813 47.1595 149.906 46.9459 149.959 46.7057C150.02 46.4588 150.05 46.2052 150.05 45.9449C150.05 45.6713 150.023 45.4144 149.969 45.1742C149.923 44.9272 149.836 44.7137 149.709 44.5335C149.589 44.3533 149.426 44.2098 149.219 44.1031C149.019 43.9963 148.762 43.9429 148.448 43.9429C148.141 43.9429 147.884 43.9996 147.677 44.1131C147.47 44.2199 147.303 44.3667 147.177 44.5535C147.05 44.7404 146.96 44.9573 146.906 45.2042C146.853 45.4444 146.826 45.7013 146.826 45.975ZM152.522 49.1582C152.522 49.0047 152.532 48.8445 152.552 48.6777C152.572 48.5042 152.612 48.3473 152.672 48.2072C152.739 48.0604 152.829 47.9403 152.942 47.8468C153.056 47.7467 153.206 47.6967 153.393 47.6967C153.586 47.6967 153.737 47.7467 153.843 47.8468C153.957 47.9403 154.044 48.0604 154.104 48.2072C154.164 48.3473 154.2 48.5042 154.214 48.6777C154.234 48.8445 154.244 49.0013 154.244 49.1481C154.244 49.3016 154.234 49.4651 154.214 49.6386C154.194 49.8121 154.15 49.9723 154.084 50.1191C154.024 50.2593 153.937 50.376 153.823 50.4695C153.71 50.5629 153.556 50.6096 153.363 50.6096C153.176 50.6096 153.026 50.5629 152.912 50.4695C152.806 50.3694 152.722 50.2492 152.662 50.1091C152.602 49.9623 152.562 49.8055 152.542 49.6386C152.529 49.4651 152.522 49.305 152.522 49.1582ZM151.771 49.1782C151.771 49.4518 151.798 49.7087 151.851 49.9489C151.911 50.1892 152.005 50.3994 152.132 50.5796C152.258 50.7531 152.425 50.8932 152.632 51C152.839 51.1001 153.093 51.1501 153.393 51.1501C153.687 51.1501 153.933 51.0968 154.134 50.99C154.334 50.8765 154.497 50.7297 154.624 50.5495C154.758 50.3627 154.851 50.1491 154.904 49.9089C154.965 49.662 154.995 49.4084 154.995 49.1481C154.995 48.8745 154.968 48.6176 154.914 48.3774C154.868 48.1305 154.781 47.9169 154.654 47.7367C154.534 47.5565 154.371 47.4131 154.164 47.3063C153.964 47.1995 153.707 47.1461 153.393 47.1461C153.086 47.1461 152.829 47.2029 152.622 47.3163C152.415 47.4231 152.248 47.5699 152.122 47.7567C151.995 47.9436 151.905 48.1605 151.851 48.4074C151.798 48.6476 151.771 48.9046 151.771 49.1782ZM153.173 43.8128L147.787 51.2503H148.648L154.024 43.8128H153.173Z" fill="#309AFF"/>
<rect x="0.455002" y="0.455002" width="184.09" height="66.09" rx="8.64504" stroke="#7473D0" stroke-width="0.910004"/>
<defs>
<filter id="filter0_f_18_3438" x="64.7559" y="21.5535" width="49.5759" height="42.9459" filterUnits="userSpaceOnUse" color-interpolation-filters="sRGB">
<feFlood flood-opacity="0" result="BackgroundImageFix"/>
<feBlend mode="normal" in="SourceGraphic" in2="BackgroundImageFix" result="shape"/>
<feGaussianBlur stdDeviation="8.58875" result="effect1_foregroundBlur_18_3438"/>
</filter>
<linearGradient id="paint0_linear_18_3438" x1="8.50266" y1="10.7306" x2="12.8967" y2="3.73257" gradientUnits="userSpaceOnUse">
<stop stop-color="#62CBFF" stop-opacity="0.01"/>
<stop offset="1" stop-color="#339CFE"/>
</linearGradient>
<linearGradient id="paint1_linear_18_3438" x1="81.5331" y1="40.1312" x2="75.7068" y2="56.0611" gradientUnits="userSpaceOnUse">
<stop stop-color="#309AFF"/>
<stop offset="0.287496" stop-color="#309AFF"/>
<stop offset="0.651175" stop-color="#5364AE"/>
<stop offset="1" stop-color="#70366B" stop-opacity="0.01"/>
</linearGradient>
</defs>
</svg>
